<svg width="58" height="58" viewBox="0 0 58 58" fill="none" xmlns="http://www.w3.org/2000/svg">
<path d="M40.13 17.82C42.2699 19.6389 43.9309 21.9549 44.9675 24.5651C46.0041 27.1753 46.3846 29.9998 46.0756 32.7913C45.7667 35.5827 44.7777 38.2557 43.1954 40.576C41.6131 42.8963 39.4858 44.7931 37 46.1C33.6219 43.6541 31.2509 40.0611 30.3305 35.9933C29.4102 31.9255 30.0037 27.6618 32 24C33.7091 23.5886 35.3141 22.827 36.7135 21.7632C38.113 20.6994 39.2764 19.3567 40.13 17.82ZM20.39 10.33L22 8.77L27 13.83H27.17H27.32H27.96C28.3 13.83 28.64 13.83 28.96 13.83C29.31 13.83 29.65 13.83 29.96 13.83H30.6H30.75H30.92L35.98 8.77L37.54 10.33L33.54 14.33C35.1346 14.7769 36.6568 15.4504 38.06 16.33C37.1722 17.9784 35.8546 19.3557 34.2472 20.3158C32.6397 21.2758 30.8023 21.7827 28.93 21.7827C27.0577 21.7827 25.2203 21.2758 23.6128 20.3158C22.0054 19.3557 20.6878 17.9784 19.8 16.33C21.2032 15.4504 22.7254 14.7769 24.32 14.33L20.39 10.33ZM17.87 17.82C18.7237 19.3567 19.887 20.6994 21.2865 21.7632C22.6859 22.827 24.291 23.5886 26 24C27.9963 27.6618 28.5898 31.9255 27.6695 35.9933C26.7491 40.0611 24.3781 43.6541 21 46.1C18.5121 44.7959 16.3822 42.9013 14.797 40.5823C13.2118 38.2634 12.2198 35.591 11.9078 32.7994C11.5959 30.0078 11.9736 27.1823 13.0079 24.5707C14.0421 21.9591 15.7013 19.6411 17.84 17.82H17.87Z" fill="white"/>
</svg>
