<svg width="58" height="58" viewBox="0 0 58 58" fill="none" xmlns="http://www.w3.org/2000/svg">
<path d="M29 10.77C25.3944 10.77 21.8699 11.8392 18.872 13.8423C15.874 15.8454 13.5375 18.6926 12.1577 22.0237C10.7779 25.3548 10.4169 29.0202 11.1203 32.5565C11.8237 36.0928 13.5599 39.341 16.1094 41.8906C18.659 44.4401 21.9072 46.1763 25.4435 46.8797C28.9798 47.5831 32.6452 47.2221 35.9763 45.8423C39.3074 44.4625 42.1546 42.126 44.1577 39.128C46.1608 36.1301 47.23 32.6056 47.23 29C47.23 24.1651 45.3093 19.5282 41.8906 16.1094C38.4718 12.6907 33.8349 10.77 29 10.77ZM29 43.64C27.4116 43.6414 25.8339 43.3812 24.33 42.87C27.2865 41.9471 29.8708 40.1037 31.7059 37.6085C33.5409 35.1134 34.5306 32.0972 34.5306 29C34.5306 25.9028 33.5409 22.8866 31.7059 20.3915C29.8708 17.8963 27.2865 16.0529 24.33 15.13C25.8339 14.6188 27.4116 14.3586 29 14.36C32.8828 14.36 36.6065 15.9024 39.352 18.648C42.0976 21.3935 43.64 25.1172 43.64 29C43.64 32.8828 42.0976 36.6065 39.352 39.352C36.6065 42.0976 32.8828 43.64 29 43.64Z" fill="white"/>
</svg>
