<svg width="58" height="58" viewBox="0 0 58 58" fill="none" xmlns="http://www.w3.org/2000/svg">
<path d="M25.55 29.66C16.16 29.66 12.67 33.11 12.67 33.11C13.4049 36.5266 15.175 39.6337 17.7392 42.0082C20.3034 44.3827 23.5371 45.9093 27 46.38C27 46.38 18.93 37.94 25.55 29.66Z" fill="white"/>
<path d="M30 12.55C31.4 9.34 30.16 5.35 30.16 5.35C28.5 10.25 21.25 14.55 20.82 14.8C15.91 17.64 11.94 22.73 11.72 28.8C11.72 28.8 13.46 27.06 21.41 26.64C29.52 26.22 31.1 20.31 31.1 20.31C31.65 22.52 34.41 24.73 34.41 24.73C35.2057 25.4848 35.8184 26.4115 36.2014 27.4392C36.5845 28.4669 36.7276 29.5685 36.62 30.66C36.6412 32.0306 36.2942 33.3818 35.6153 34.5726C34.9363 35.7634 33.9503 36.7502 32.76 37.43C30.5021 38.4237 28.0217 38.8032 25.57 38.53C25.8635 39.7256 26.39 40.8515 27.1192 41.8434C27.8485 42.8352 28.7663 43.6734 29.82 44.31C30.9063 45.024 32.1648 45.4323 33.4634 45.4922C34.7619 45.552 36.0526 45.2611 37.2 44.65C40.543 42.9266 43.2201 40.1432 44.8121 36.7358C46.4041 33.3283 46.8212 29.489 45.9981 25.8191C45.1749 22.1492 43.158 18.8559 40.2631 16.4549C37.3682 14.0538 33.7588 12.6805 30 12.55ZM21.65 21.8C20.49 23.13 17.31 24 17.31 24C17.31 24 18.65 19.65 22.17 18.74C22.3491 19.2524 22.3954 19.8019 22.3044 20.337C22.2135 20.8722 21.9883 21.3755 21.65 21.8Z" fill="white"/>
</svg>
