<svg width="58" height="58" viewBox="0 0 58 58" fill="none" xmlns="http://www.w3.org/2000/svg">
<path d="M48.47 28.05L40.19 23.12C40.0848 23.0597 40.0029 22.9658 39.9575 22.8533C39.9122 22.7409 39.906 22.6164 39.94 22.5L41.31 17.37C41.3337 17.276 41.3326 17.1775 41.3069 17.0841C41.2811 16.9907 41.2315 16.9055 41.163 16.837C41.0945 16.7685 41.0093 16.7189 40.9159 16.6931C40.8225 16.6674 40.724 16.6663 40.63 16.69L35.5 18.06C35.3836 18.094 35.2591 18.0878 35.1467 18.0425C35.0342 17.9971 34.9403 17.9152 34.88 17.81L30 9.53C29.9012 9.36646 29.7618 9.2312 29.5954 9.13732C29.4289 9.04344 29.2411 8.99411 29.05 8.99411C28.8589 8.99411 28.6711 9.04344 28.5046 9.13732C28.3382 9.2312 28.1988 9.36646 28.1 9.53L23.17 17.81C23.1097 17.9152 23.0158 17.9971 22.9033 18.0425C22.7909 18.0878 22.6664 18.094 22.55 18.06L17.42 16.69C17.326 16.6663 17.2275 16.6674 17.1341 16.6931C17.0407 16.7189 16.9555 16.7685 16.887 16.837C16.8185 16.9055 16.7689 16.9907 16.7431 17.0841C16.7174 17.1775 16.7163 17.276 16.74 17.37L18.11 22.5C18.144 22.6164 18.1378 22.7409 18.0925 22.8533C18.0471 22.9658 17.9652 23.0597 17.86 23.12L9.53 28.05C9.36646 28.1488 9.2312 28.2882 9.13732 28.4546C9.04344 28.6211 8.99411 28.8089 8.99411 29C8.99411 29.1911 9.04344 29.3789 9.13732 29.5454C9.2312 29.7118 9.36646 29.8512 9.53 29.95L17.81 34.88C17.9152 34.9403 17.9971 35.0342 18.0425 35.1467C18.0878 35.2591 18.094 35.3836 18.06 35.5L16.69 40.63C16.6663 40.724 16.6674 40.8225 16.6931 40.9159C16.7189 41.0093 16.7685 41.0945 16.837 41.163C16.9055 41.2315 16.9907 41.2811 17.0841 41.3069C17.1775 41.3326 17.276 41.3337 17.37 41.31L22.5 39.94C22.6164 39.906 22.7409 39.9122 22.8533 39.9575C22.9658 40.0029 23.0597 40.0848 23.12 40.19L28.05 48.47C28.1488 48.6335 28.2882 48.7688 28.4546 48.8627C28.6211 48.9566 28.8089 49.0059 29 49.0059C29.1911 49.0059 29.3789 48.9566 29.5454 48.8627C29.7118 48.7688 29.8512 48.6335 29.95 48.47L34.88 40.19C34.9403 40.0848 35.0342 40.0029 35.1467 39.9575C35.2591 39.9122 35.3836 39.906 35.5 39.94L40.63 41.31C40.724 41.3337 40.8225 41.3326 40.9159 41.3069C41.0093 41.2811 41.0945 41.2315 41.163 41.163C41.2315 41.0945 41.2811 41.0093 41.3069 40.9159C41.3326 40.8225 41.3337 40.724 41.31 40.63L39.94 35.5C39.906 35.3836 39.9122 35.2591 39.9575 35.1467C40.0029 35.0342 40.0848 34.9403 40.19 34.88L48.47 30C48.6453 29.9046 48.7917 29.7637 48.8937 29.5921C48.9956 29.4205 49.0495 29.2246 49.0495 29.025C49.0495 28.8254 48.9956 28.6295 48.8937 28.4579C48.7917 28.2863 48.6453 28.1454 48.47 28.05ZM31.93 32.13L29.48 36.37C29.4361 36.4657 29.3657 36.5469 29.2771 36.6038C29.1884 36.6606 29.0853 36.6909 28.98 36.6909C28.8747 36.6909 28.7716 36.6606 28.683 36.6038C28.5943 36.5469 28.5239 36.4657 28.48 36.37L26.03 32.13C25.9791 32.0493 25.9107 31.9809 25.83 31.93L21.59 29.48C21.4943 29.4361 21.4131 29.3657 21.3562 29.2771C21.2994 29.1884 21.2691 29.0853 21.2691 28.98C21.2691 28.8747 21.2994 28.7716 21.3562 28.6829C21.4131 28.5943 21.4943 28.5239 21.59 28.48L25.83 26.03C25.9107 25.9791 25.9791 25.9107 26.03 25.83L28.48 21.59C28.5239 21.4943 28.5943 21.4131 28.683 21.3562C28.7716 21.2994 28.8747 21.2691 28.98 21.2691C29.0853 21.2691 29.1884 21.2994 29.2771 21.3562C29.3657 21.4131 29.4361 21.4943 29.48 21.59L31.93 25.83C31.9809 25.9107 32.0493 25.9791 32.13 26.03L36.37 28.48C36.4657 28.5239 36.5469 28.5943 36.6038 28.6829C36.6606 28.7716 36.6909 28.8747 36.6909 28.98C36.6909 29.0853 36.6606 29.1884 36.6038 29.2771C36.5469 29.3657 36.4657 29.4361 36.37 29.48L32.13 31.93C32.0493 31.9809 31.9809 32.0493 31.93 32.13Z" fill="white"/>
</svg>
