<svg width="58" height="58" viewBox="0 0 58 58" fill="none" xmlns="http://www.w3.org/2000/svg">
<path d="M15.49 42.84H12.87L9.87 35.33C9.34015 34.0009 9.34015 32.5191 9.87 31.19L12.87 23.69H15.49V42.84ZM45.42 42.29C45.42 42.4359 45.3621 42.5758 45.2589 42.6789C45.1558 42.7821 45.0159 42.84 44.87 42.84H19.87C19.3024 42.84 18.7581 42.6145 18.3568 42.2132C17.9555 41.8119 17.73 41.2676 17.73 40.7V27.47C17.7328 27.3028 17.7633 27.1373 17.82 26.98C17.7595 26.8342 17.7289 26.6778 17.73 26.52V16.52C17.73 16.154 17.8754 15.803 18.1342 15.5442C18.393 15.2854 18.744 15.14 19.11 15.14H21.68C22.039 15.1556 22.3777 15.3106 22.6242 15.572C22.8707 15.8334 23.0055 16.1807 23 16.54V25.33C23 25.4759 23.0579 25.6158 23.1611 25.7189C23.2642 25.8221 23.4041 25.88 23.55 25.88H24.55C24.6222 25.88 24.6937 25.8658 24.7605 25.8381C24.8272 25.8105 24.8878 25.77 24.9389 25.7189C24.99 25.6678 25.0305 25.6072 25.0581 25.5405C25.0858 25.4737 25.1 25.4022 25.1 25.33V16.54C25.1 16.174 25.2454 15.823 25.5042 15.5642C25.763 15.3054 26.114 15.16 26.48 15.16H29.1C29.466 15.16 29.817 15.3054 30.0758 15.5642C30.3346 15.823 30.48 16.174 30.48 16.54V25.33C30.48 25.4759 30.5379 25.6158 30.6411 25.7189C30.7442 25.8221 30.8841 25.88 31.03 25.88H32.03C32.1759 25.88 32.3158 25.8221 32.4189 25.7189C32.5221 25.6158 32.58 25.4759 32.58 25.33V16.54C32.5799 16.3554 32.6169 16.1726 32.6887 16.0025C32.7606 15.8324 32.8658 15.6785 32.9982 15.5498C33.1306 15.4211 33.2875 15.3203 33.4596 15.2533C33.6317 15.1864 33.8154 15.1546 34 15.16H36.57C36.7554 15.1533 36.9402 15.184 37.1135 15.2503C37.2867 15.3167 37.4448 15.4173 37.5783 15.5461C37.7118 15.6749 37.8179 15.8293 37.8904 16.0001C37.9628 16.1709 38.0001 16.3545 38 16.54V25.33C38 25.4759 38.0579 25.6158 38.1611 25.7189C38.2642 25.8221 38.4041 25.88 38.55 25.88H39.55C39.6959 25.88 39.8358 25.8221 39.9389 25.7189C40.0421 25.6158 40.1 25.4759 40.1 25.33V16.54C40.1 16.174 40.2454 15.823 40.5042 15.5642C40.763 15.3054 41.114 15.16 41.48 15.16H44C44.366 15.16 44.717 15.3054 44.9758 15.5642C45.2346 15.823 45.38 16.174 45.38 16.54L45.42 42.29Z" fill="white"/>
</svg>
