<svg width="58" height="58" viewBox="0 0 58 58" fill="none" xmlns="http://www.w3.org/2000/svg">
<path d="M29.15 30.68C27.5799 30.68 26.0741 31.3037 24.9639 32.4139C23.8537 33.5241 23.23 35.0299 23.23 36.6C23.23 37.32 23.74 42.6 29.98 44.1C35.16 45.36 42.09 42.24 43.34 41.1C41.3939 44.1231 38.5216 46.435 35.1525 47.6901C31.7835 48.9452 28.0986 49.0761 24.649 48.0632C21.1993 47.0502 18.1703 44.9479 16.0146 42.0705C13.859 39.1931 12.6927 35.6953 12.69 32.1C12.594 28.5882 13.8219 25.1686 16.13 22.52C16.13 22.52 14.84 27.69 17.66 31.61C17.66 31.61 15.52 20.74 24.12 16.29C25.612 15.5903 26.8742 14.4807 27.7595 13.0908C28.6448 11.7009 29.1166 10.0879 29.12 8.44C29.1166 7.98086 29.0765 7.52273 29 7.07C30.5639 7.74181 31.896 8.85809 32.8311 10.2803C33.7662 11.7025 34.263 13.3679 34.26 15.07C34.26 15.44 34.19 16.17 34.19 16.17C33.0605 16.1998 31.9745 16.6113 31.1088 17.3374C30.2431 18.0634 29.6489 19.0613 29.4229 20.1683C29.197 21.2754 29.3526 22.4263 29.8645 23.4335C30.3764 24.4408 31.2143 25.245 32.2418 25.715C33.2692 26.1851 34.4256 26.2933 35.5224 26.022C36.6192 25.7507 37.5918 25.116 38.2816 24.2212C38.9715 23.3264 39.338 22.2243 39.3214 21.0946C39.3047 19.9649 38.9059 18.8741 38.19 18C41.4029 20.0166 43.8331 23.0675 45.08 26.65C45.2414 27.4836 45.3218 28.3309 45.32 29.18C45.3174 32.7137 43.9138 36.1022 41.417 38.6028C38.9201 41.1034 35.5337 42.5121 32 42.52C31.4449 42.5192 30.8904 42.4825 30.34 42.41C31.7852 42.1275 33.0732 41.3165 33.9526 40.1354C34.832 38.9543 35.2396 37.4879 35.0959 36.0224C34.9522 34.5569 34.2676 33.1975 33.1755 32.2097C32.0835 31.2219 30.6625 30.6765 29.19 30.68H29.15Z" fill="white"/>
</svg>
