<svg width="58" height="58" viewBox="0 0 58 58" fill="none" xmlns="http://www.w3.org/2000/svg">
<path d="M24.93 17.84H37.93C39.9933 17.8412 42.0287 17.3641 43.8765 16.4463C45.7244 15.5284 47.3343 14.1948 48.58 12.55C48.58 12.96 48.64 13.38 48.64 13.8C48.6355 16.8967 47.6044 19.9046 45.7081 22.3528C43.8118 24.801 41.1573 26.5514 38.16 27.33C36.998 27.6355 35.8015 27.7901 34.6 27.79H30.23C30.1495 27.7793 30.0676 27.7859 29.9899 27.8093C29.9121 27.8328 29.8403 27.8726 29.7792 27.9261C29.7181 27.9796 29.6691 28.0456 29.6356 28.1195C29.602 28.1935 29.5847 28.2738 29.5847 28.355C29.5847 28.4362 29.602 28.5165 29.6356 28.5905C29.6691 28.6644 29.7181 28.7304 29.7792 28.7839C29.8403 28.8374 29.9121 28.8772 29.9899 28.9007C30.0676 28.9241 30.1495 28.9307 30.23 28.92H38.59C40.3301 28.9251 42.0478 28.5279 43.609 27.7595C45.1702 26.991 46.5327 25.872 47.59 24.49C47.1267 27.1998 45.7184 29.6579 43.615 31.4282C41.5116 33.1984 38.8492 34.1662 36.1 34.16H31.88C31.7431 34.1783 31.6175 34.2456 31.5265 34.3495C31.4355 34.4535 31.3853 34.5869 31.3853 34.725C31.3853 34.8631 31.4355 34.9966 31.5265 35.1005C31.6175 35.2044 31.7431 35.2717 31.88 35.29H39.31C41.0407 35.2877 42.7381 34.814 44.22 33.92C43.5635 35.4636 42.5025 36.8014 41.1491 37.7923C39.7956 38.7832 38.1998 39.3904 36.53 39.55H33.93C33.7788 39.55 33.6339 39.6101 33.527 39.717C33.4201 39.8238 33.36 39.9688 33.36 40.12C33.36 40.1944 33.3748 40.268 33.4036 40.3366C33.4323 40.4052 33.4745 40.4674 33.5275 40.5196C33.5806 40.5717 33.6435 40.6127 33.7126 40.6403C33.7817 40.6678 33.8556 40.6813 33.93 40.68H34.87C34.9416 40.6805 35.0115 40.7018 35.0712 40.7413C35.1309 40.7807 35.1779 40.8366 35.2065 40.9023C35.2351 40.9679 35.244 41.0404 35.2322 41.111C35.2204 41.1816 35.1884 41.2472 35.14 41.3C33.4177 43.1479 31.2274 44.4954 28.8014 45.1996C26.3754 45.9038 23.8041 45.9385 21.36 45.3C18.8977 44.6795 16.6557 43.3883 14.8833 41.57C13.1108 39.7516 11.8774 37.4774 11.32 35C10.8449 32.9496 10.8383 30.8185 11.3005 28.7653C11.7628 26.712 12.682 24.7893 13.9898 23.1403C15.2977 21.4913 16.9605 20.1584 18.8546 19.2408C20.7487 18.3231 22.8253 17.8443 24.93 17.84Z" fill="white"/>
</svg>
