<svg width="58" height="58" viewBox="0 0 58 58" fill="none" xmlns="http://www.w3.org/2000/svg">
<path d="M43.66 43.63C43.3121 43.634 42.9669 43.5689 42.6443 43.4385C42.3218 43.3081 42.0283 43.115 41.7809 42.8704C41.5335 42.6258 41.3371 42.3345 41.203 42.0134C41.069 41.6924 41 41.3479 41 41C40.9983 40.395 41.2069 39.8082 41.59 39.34C43.7342 36.7549 45.0945 33.6104 45.5103 30.2776C45.9261 26.9448 45.3801 23.5626 43.9367 20.5298C42.4934 17.4971 40.2129 14.9404 37.3642 13.1612C34.5155 11.3821 31.2173 10.4547 27.8589 10.4884C24.5004 10.5221 21.2215 11.5156 18.4091 13.3516C15.5967 15.1877 13.368 17.7897 11.9859 20.8508C10.6038 23.9119 10.1259 27.3044 10.6085 30.6282C11.0912 33.952 12.5143 37.0685 14.71 39.61L14.98 39.92C15.0219 39.9586 15.0589 40.0023 15.09 40.05L15.17 40.13C16.7191 41.7811 18.5688 43.1217 20.62 44.08C24.0856 45.823 27.933 46.6688 31.81 46.54C31.81 46.54 39.28 46.54 44.19 43.54C44.38 43.48 43.85 43.63 43.66 43.63ZM21.16 29.63C20.2511 29.6283 19.3705 29.3132 18.6669 28.7377C17.9633 28.1623 17.4796 27.3619 17.2975 26.4713C17.1154 25.5808 17.246 24.6547 17.6673 23.8493C18.0885 23.0439 18.7747 22.4084 19.61 22.05C19.61 22.1 19.61 22.15 19.61 22.19C19.621 22.8392 19.7899 23.476 20.1021 24.0453C20.4143 24.6146 20.8604 25.0994 21.4018 25.4578C21.9433 25.8161 22.5639 26.0373 23.2099 26.1021C23.856 26.167 24.5081 26.0736 25.11 25.83C25.0787 26.8548 24.6482 27.8269 23.9102 28.5387C23.1722 29.2505 22.1853 29.6457 21.16 29.64V29.63ZM35.07 29.63C34.0489 29.6306 33.0674 29.2348 32.3324 28.5259C31.5974 27.817 31.1663 26.8505 31.13 25.83C31.7319 26.0736 32.384 26.167 33.0301 26.1021C33.6762 26.0373 34.2967 25.8161 34.8382 25.4578C35.3796 25.0994 35.8257 24.6146 36.1379 24.0453C36.4501 23.476 36.619 22.8392 36.63 22.19C36.63 22.19 36.63 22.1 36.63 22.05C37.4653 22.4084 38.1515 23.0439 38.5727 23.8493C38.994 24.6547 39.1246 25.5808 38.9425 26.4713C38.7604 27.3619 38.2768 28.1623 37.5731 28.7377C36.8695 29.3132 35.989 29.6283 35.08 29.63H35.07Z" fill="white"/>
</svg>
