<svg width="58" height="58" viewBox="0 0 58 58" fill="none" xmlns="http://www.w3.org/2000/svg">
<path d="M39.9 43C37.4584 45.9076 34.1064 47.9054 30.3874 48.6695C26.6683 49.4336 22.8002 48.9194 19.41 47.21C19.15 47.08 18.89 46.94 18.64 46.79L21.7 42.59L36 40.19C36.1339 40.1641 36.2535 40.0894 36.3354 39.9803C36.4174 39.8712 36.4558 39.7356 36.4434 39.5997C36.4309 39.4639 36.3684 39.3375 36.268 39.2452C36.1676 39.1528 36.0364 39.1011 35.9 39.1L24.16 39.23L29.29 32.23L38.37 30.4C38.5151 30.3848 38.6485 30.3136 38.7419 30.2016C38.8352 30.0895 38.8812 29.9454 38.87 29.8C38.8637 29.729 38.8435 29.6599 38.8103 29.5967C38.7772 29.5336 38.7319 29.4776 38.6771 29.4321C38.6222 29.3865 38.5589 29.3523 38.4908 29.3313C38.4226 29.3104 38.351 29.3031 38.28 29.31L31.54 29.14L38.54 19.63C38.6558 19.4834 38.711 19.2981 38.6942 19.1121C38.6775 18.9261 38.5901 18.7535 38.45 18.63C38.3044 18.5118 38.1185 18.4551 37.9317 18.4719C37.745 18.4887 37.5721 18.5777 37.45 18.72L29.28 27.22L27.95 20.61C27.9348 20.4649 27.8636 20.3315 27.7515 20.2381C27.6395 20.1448 27.4954 20.0988 27.35 20.11C27.279 20.1163 27.2099 20.1365 27.1467 20.1697C27.0836 20.2028 27.0276 20.2481 26.9821 20.3029C26.9365 20.3578 26.9023 20.4211 26.8813 20.4892C26.8604 20.5574 26.8531 20.629 26.86 20.7L26.63 29.97L20.63 36.24L18.59 24.6C18.5748 24.4557 18.5033 24.3232 18.3909 24.2314C18.2785 24.1397 18.1344 24.096 17.99 24.11C17.9185 24.1149 17.8487 24.1343 17.7849 24.167C17.7211 24.1997 17.6645 24.245 17.6187 24.3001C17.5729 24.3553 17.5388 24.4192 17.5184 24.4879C17.498 24.5566 17.4917 24.6288 17.5 24.7L17.65 39.15L14.05 42.89C13.86 42.67 13.68 42.44 13.51 42.21C11.2356 39.167 10.0563 35.4448 10.1634 31.6473C10.2705 27.8498 11.6577 24.1999 14.1 21.29C20.1 14.17 32.25 11.85 43.36 12.62C46 23.43 45.88 35.82 39.9 43Z" fill="white"/>
</svg>
