<svg width="58" height="58" viewBox="0 0 58 58" fill="none" xmlns="http://www.w3.org/2000/svg">
<path d="M29 46.91C25.4577 46.91 21.995 45.8596 19.0497 43.8916C16.1045 41.9236 13.8089 39.1265 12.4533 35.8539C11.0978 32.5812 10.7431 28.9801 11.4341 25.5059C12.1252 22.0317 13.831 18.8405 16.3357 16.3357C18.8405 13.831 22.0317 12.1252 25.5059 11.4341C28.9801 10.7431 32.5812 11.0977 35.8539 12.4533C39.1265 13.8089 41.9236 16.1045 43.8916 19.0497C45.8596 21.995 46.91 25.4577 46.91 29C46.9021 33.7476 45.0126 38.2985 41.6555 41.6555C38.2985 45.0126 33.7476 46.9021 29 46.91ZM29 18.3C26.8837 18.3 24.815 18.9275 23.0554 20.1033C21.2958 21.279 19.9243 22.9501 19.1145 24.9053C18.3046 26.8605 18.0927 29.0119 18.5056 31.0875C18.9185 33.1631 19.9375 35.0696 21.434 36.566C22.9304 38.0625 24.8369 39.0815 26.9125 39.4944C28.9881 39.9073 31.1395 39.6954 33.0947 38.8855C35.0499 38.0756 36.721 36.7042 37.8967 34.9446C39.0725 33.185 39.7 31.1163 39.7 29C39.6974 26.163 38.5692 23.4429 36.5631 21.4369C34.5571 19.4308 31.837 18.3026 29 18.3Z" fill="white"/>
</svg>
