<svg width="58" height="58" viewBox="0 0 58 58" fill="none" xmlns="http://www.w3.org/2000/svg">
<path d="M47 26.93C47 18.43 38.92 11.52 29 11.52C19.08 11.52 11 18.43 11 26.93C11.0419 29.1398 11.589 31.3106 12.5996 33.2763C13.6101 35.2419 15.0572 36.9501 16.83 38.27C16.3793 39.1342 16.1459 40.0953 16.15 41.07C16.15 44.07 18.25 46.48 20.84 46.48C21.7885 46.4433 22.7034 46.1196 23.4641 45.5519C24.2247 44.9841 24.7951 44.1989 25.1 43.3C25.3444 44.1667 25.8499 44.9369 26.5477 45.506C27.2456 46.075 28.1019 46.4151 29 46.48C29.8999 46.4171 30.7584 46.0779 31.4582 45.5087C32.158 44.9395 32.6651 44.1682 32.91 43.3C33.2149 44.1989 33.7853 44.9841 34.5459 45.5519C35.3066 46.1196 36.2215 46.4433 37.17 46.48C39.76 46.48 41.86 44.06 41.86 41.07C41.8641 40.0953 41.6307 39.1342 41.18 38.27C42.9509 36.9491 44.3961 35.2404 45.4049 33.2748C46.4137 31.3093 46.9593 29.1389 47 26.93ZM29 36.26C22.42 36.26 17.07 32.07 17.07 26.93C17.07 21.79 22.42 17.6 29 17.6C35.58 17.6 40.93 21.78 40.93 26.93C40.93 32.08 35.58 36.26 29 36.26Z" fill="white"/>
</svg>
