<svg width="58" height="58" viewBox="0 0 58 58" fill="none" xmlns="http://www.w3.org/2000/svg">
<path d="M26.87 12.73L27.81 12.66C28.11 12.66 28.4 12.66 28.7 12.66C33.3164 12.6945 37.7532 14.4529 41.14 17.59C43.7811 20.2111 45.3226 23.7412 45.45 27.46C45.45 27.7 45.45 27.94 45.45 28.18C45.3924 29.1588 45.2417 30.1298 45 31.08C44.5136 33.1008 43.5345 34.9697 42.15 36.52C40.7451 38.0439 38.9715 39.1804 37 39.82C36.0843 40.1289 35.1394 40.3434 34.18 40.46C33.2065 40.5704 32.2235 40.5704 31.25 40.46C29.2534 40.2623 27.3434 39.5451 25.71 38.38C24.0421 37.1875 22.8067 35.4854 22.19 33.53C21.8951 32.5949 21.7434 31.6205 21.74 30.64C21.7215 29.6195 21.8841 28.6038 22.22 27.64C22.7277 26.2016 23.6248 24.9324 24.8113 23.9737C25.9977 23.0149 27.427 22.4044 28.94 22.21C33.09 21.68 35.94 24.7 36.15 27.21C36.43 30.21 35.42 31.76 33.61 32.59C32.6489 32.9523 31.5921 32.971 30.6188 32.643C29.6455 32.3149 28.8156 31.6602 28.27 30.79C28.2165 30.678 28.186 30.5564 28.1802 30.4324C28.1744 30.3084 28.1935 30.1845 28.2364 30.068C28.2793 29.9515 28.345 29.8448 28.4298 29.7541C28.5146 29.6634 28.6167 29.5906 28.73 29.54C28.9609 29.444 29.2193 29.438 29.4544 29.5232C29.6895 29.6083 29.8841 29.7784 30 30C30.1078 30.189 30.252 30.3547 30.4241 30.4878C30.5963 30.6208 30.793 30.7185 31.0031 30.7752C31.2131 30.8319 31.4323 30.8465 31.648 30.8181C31.8638 30.7898 32.0717 30.719 32.26 30.61C32.7042 30.2473 33.0314 29.7615 33.2004 29.2135C33.3694 28.6656 33.3727 28.0799 33.21 27.53C33.0817 27.0167 32.8043 26.5529 32.4128 26.1969C32.0213 25.841 31.5332 25.609 31.01 25.53C30.4395 25.4105 29.8505 25.4105 29.28 25.53C28.7018 25.6353 28.1487 25.8491 27.65 26.16C27.1829 26.4541 26.7789 26.8381 26.4613 27.2895C26.1437 27.741 25.919 28.251 25.8 28.79C25.6846 29.329 25.6643 29.884 25.74 30.43C25.8187 31.0002 25.9699 31.5581 26.19 32.09C26.6311 33.2331 27.4058 34.2172 28.4133 34.9144C29.4209 35.6117 30.6148 35.9899 31.84 36C33.8282 35.9363 35.7213 35.1341 37.15 33.75C38.5477 32.1635 39.266 30.0912 39.15 27.98C39.15 27.98 39.06 23.81 36.31 21.46C34.2787 19.7334 31.6619 18.8528 29 19C26.3276 18.9395 23.7237 19.8489 21.67 21.56C20.9633 22.2371 20.3481 23.0036 19.84 23.84C18.7311 25.6799 18.1115 27.773 18.04 29.92C18.0248 30.2031 18.0248 30.4869 18.04 30.77C18.026 31.0198 18.026 31.2702 18.04 31.52C18.0954 32.0772 18.1789 32.6312 18.29 33.18C18.5038 34.2869 18.8391 35.3668 19.29 36.4C20.167 38.4469 21.6323 40.1872 23.5 41.4C27.4 43.94 32.64 44.08 37.71 42.86C37.8134 42.8063 37.9331 42.7929 38.0458 42.8225C38.1585 42.8521 38.2562 42.9225 38.32 43.02C38.48 43.31 38.17 43.59 38.08 43.66C36.0608 45.2338 33.5593 46.0606 31 46C16.9 46 13.7 35.93 13.27 34.48C13.053 33.7448 12.8827 32.9967 12.76 32.24C12.7 31.87 12.64 31.45 12.61 31.02C12.58 30.59 12.55 30.27 12.55 29.88C12.55 16 23.94 12.73 26.87 12.73Z" fill="white"/>
</svg>
