<svg width="58" height="58" viewBox="0 0 58 58" fill="none" xmlns="http://www.w3.org/2000/svg">
<path d="M38.83 12H19.17L9.35001 29L19.17 46H38.83L48.65 29L38.83 12ZM29 37.93C27.2338 37.93 25.5073 37.4063 24.0388 36.425C22.5702 35.4438 21.4257 34.0491 20.7498 32.4174C20.0739 30.7856 19.897 28.9901 20.2416 27.2578C20.5862 25.5256 21.4367 23.9344 22.6855 22.6855C23.9344 21.4367 25.5256 20.5862 27.2578 20.2416C28.9901 19.897 30.7856 20.0739 32.4174 20.7498C34.0491 21.4256 35.4438 22.5702 36.425 24.0388C37.4063 25.5073 37.93 27.2338 37.93 29C37.93 31.3684 36.9892 33.6398 35.3145 35.3145C33.6398 36.9892 31.3684 37.93 29 37.93Z" fill="white"/>
</svg>
