<svg width="58" height="58" viewBox="0 0 58 58" fill="none" xmlns="http://www.w3.org/2000/svg">
<path d="M29 10.51C29 10.51 16.05 23.18 16.05 34.51C16.05 37.9446 17.4144 41.2384 19.843 43.667C22.2716 46.0956 25.5655 47.46 29 47.46C32.4346 47.46 35.7284 46.0956 38.157 43.667C40.5856 41.2384 41.95 37.9446 41.95 34.51C42 23.18 29 10.51 29 10.51ZM35.33 38.94C34.8812 39.9132 34.2255 40.7768 33.4087 41.4707C32.5918 42.1645 31.6335 42.6718 30.6005 42.9573C29.5675 43.2427 28.4847 43.2995 27.4275 43.1235C26.3703 42.9476 25.3642 42.5432 24.4793 41.9385C23.5945 41.3339 22.8521 40.5435 22.3041 39.6225C21.756 38.7015 21.4154 37.6721 21.3059 36.606C21.1965 35.5399 21.3209 34.4627 21.6705 33.4496C22.0201 32.4365 22.5864 31.5118 23.33 30.74C23.1149 32.2893 23.4023 33.8667 24.1502 35.2404C24.898 36.6142 26.0668 37.7119 27.4847 38.3722C28.9026 39.0324 30.4949 39.2205 32.0277 38.9087C33.5604 38.5969 34.9527 37.8017 36 36.64C35.908 37.439 35.6815 38.2166 35.33 38.94Z" fill="white"/>
</svg>
