<svg width="184" height="30" viewBox="0 0 184 30" fill="none" xmlns="http://www.w3.org/2000/svg">
<path d="M21.375 10.0898C21.375 11.2266 21.2051 12.2344 20.8652 13.1133C20.5254 13.9922 20.0566 14.7598 19.459 15.416C18.873 16.0723 18.1816 16.6289 17.3848 17.0859C16.5879 17.543 15.7324 17.918 14.8184 18.2109C13.916 18.4922 12.9785 18.7031 12.0059 18.8438C11.0332 18.9727 10.0781 19.043 9.14062 19.0547V27.2461H0.949219C0.949219 24.5625 0.955078 21.8906 0.966797 19.2305C0.978516 16.5703 0.996094 13.8867 1.01953 11.1797C1.04297 9.75 1.04883 8.32031 1.03711 6.89062C1.02539 5.46094 1.05469 4.01953 1.125 2.56641C2.625 2.12109 4.125 1.78711 5.625 1.56445C7.125 1.3418 8.67188 1.23047 10.2656 1.23047C11.168 1.23047 12.0703 1.30664 12.9727 1.45898C13.875 1.59961 14.7363 1.82812 15.5566 2.14453C16.3887 2.46094 17.1562 2.85938 17.8594 3.33984C18.5742 3.80859 19.1895 4.37109 19.7051 5.02734C20.2207 5.68359 20.625 6.43359 20.918 7.27734C21.2227 8.10937 21.375 9.04688 21.375 10.0898ZM13.5703 10.6875C13.5703 9.92578 13.3359 9.33398 12.8672 8.91211C12.4102 8.47852 11.8125 8.26172 11.0742 8.26172C10.8281 8.26172 10.5703 8.28516 10.3008 8.33203C10.043 8.36719 9.79688 8.41406 9.5625 8.47266L9.35156 13.6055C9.51562 13.6289 9.67383 13.6406 9.82617 13.6406C9.97852 13.6406 10.1367 13.6406 10.3008 13.6406C10.7227 13.6406 11.127 13.5703 11.5137 13.4297C11.9121 13.2891 12.2637 13.0898 12.5684 12.832C12.873 12.5625 13.1133 12.252 13.2891 11.9004C13.4766 11.5371 13.5703 11.1328 13.5703 10.6875ZM44.0684 14.5898C44.0684 15.6562 43.9453 16.6875 43.6992 17.6836C43.4531 18.668 43.0957 19.5938 42.627 20.4609C42.1699 21.3281 41.6074 22.125 40.9395 22.8516C40.2832 23.5664 39.5391 24.1816 38.707 24.6973C37.8867 25.2129 36.9902 25.6172 36.0176 25.9102C35.0449 26.1914 34.0137 26.332 32.9238 26.332C31.8691 26.332 30.8613 26.1973 29.9004 25.9277C28.9512 25.6582 28.0605 25.2832 27.2285 24.8027C26.3965 24.3105 25.6406 23.7246 24.9609 23.0449C24.293 22.3535 23.7188 21.5918 23.2383 20.7598C22.7695 19.916 22.4004 19.0137 22.1309 18.0527C21.873 17.0918 21.7441 16.0898 21.7441 15.0469C21.7441 14.0273 21.8672 13.0312 22.1133 12.0586C22.3594 11.0742 22.7109 10.1484 23.168 9.28125C23.6367 8.41406 24.1992 7.61719 24.8555 6.89062C25.5117 6.16406 26.2441 5.53711 27.0527 5.00977C27.873 4.48242 28.7578 4.07227 29.707 3.7793C30.6562 3.48633 31.6582 3.33984 32.7129 3.33984C34.4121 3.33984 35.959 3.60352 37.3535 4.13086C38.7598 4.6582 39.9551 5.41406 40.9395 6.39844C41.9355 7.37109 42.7031 8.55469 43.2422 9.94922C43.793 11.332 44.0684 12.8789 44.0684 14.5898ZM36.2637 15.0469C36.2637 14.543 36.1875 14.0566 36.0352 13.5879C35.8945 13.1074 35.6836 12.6855 35.4023 12.3223C35.1211 11.9473 34.7695 11.6484 34.3477 11.4258C33.9375 11.1914 33.4629 11.0742 32.9238 11.0742C32.373 11.0742 31.8809 11.1738 31.4473 11.373C31.0137 11.5723 30.6387 11.8477 30.3223 12.1992C30.0176 12.5391 29.7832 12.9434 29.6191 13.4121C29.4551 13.8691 29.373 14.3555 29.373 14.8711C29.373 15.3633 29.4434 15.8555 29.584 16.3477C29.7246 16.8398 29.9355 17.2852 30.2168 17.6836C30.498 18.082 30.8438 18.4043 31.2539 18.6504C31.6758 18.8965 32.1621 19.0195 32.7129 19.0195C33.2637 19.0195 33.7559 18.9141 34.1895 18.7031C34.6348 18.4805 35.0098 18.1875 35.3145 17.8242C35.6191 17.4492 35.8535 17.0215 36.0176 16.541C36.1816 16.0605 36.2637 15.5625 36.2637 15.0469ZM67.5879 1.82812L59.1152 13.5352L66.252 25.9805L58.0957 27.4219L52.752 19.8281L52.4707 27.7734L45.1582 28.0547L45.7207 1.125L53.9121 1.58203L53.2793 9.52734L58.7285 1.125L67.5879 1.82812ZM84.0586 1.65234C83.9883 2.75391 83.9238 3.84375 83.8652 4.92188C83.8066 6 83.7305 7.08984 83.6367 8.19141L76.1836 8.57812L76.0078 10.793H81.2461L80.8594 16.2422L75.5859 16.418L75.4102 18.9844H79.7695H82.8633C82.793 20.2734 82.7168 21.5566 82.6348 22.834C82.5645 24.0996 82.5 25.3711 82.4414 26.6484L67.2891 27L67.8516 1.65234H84.0586ZM104.59 13.043C104.59 14.6836 104.379 16.166 103.957 17.4902C103.535 18.8027 102.943 19.9746 102.182 21.0059C101.432 22.0254 100.535 22.9043 99.4922 23.6426C98.4492 24.3809 97.3066 24.9902 96.0645 25.4707C94.8223 25.9395 93.498 26.291 92.0918 26.5254C90.6973 26.748 89.2617 26.8594 87.7852 26.8594C87.2344 26.8594 86.6953 26.8477 86.168 26.8242C85.6406 26.7891 85.1016 26.7422 84.5508 26.6836L85.043 3.09375C86.332 2.68359 87.6562 2.39648 89.0156 2.23242C90.3867 2.05664 91.7461 1.96875 93.0938 1.96875C94.7695 1.96875 96.3105 2.2207 97.7168 2.72461C99.123 3.22852 100.336 3.95508 101.355 4.9043C102.375 5.85352 103.166 7.01367 103.729 8.38477C104.303 9.75586 104.59 11.3086 104.59 13.043ZM97.3828 14.168C97.3945 13.5352 97.3242 12.9258 97.1719 12.3398C97.0312 11.7539 96.791 11.2383 96.4512 10.793C96.123 10.3359 95.7012 9.97266 95.1855 9.70312C94.6699 9.42188 94.0547 9.26953 93.3398 9.24609L92.6367 20.1445C93.3398 20.0391 93.9785 19.8105 94.5527 19.459C95.127 19.0957 95.6191 18.6562 96.0293 18.1406C96.4512 17.6133 96.7734 17.0332 96.9961 16.4004C97.2305 15.7559 97.3594 15.0938 97.3828 14.4141V14.168ZM122.309 1.65234C122.238 2.75391 122.174 3.84375 122.115 4.92188C122.057 6 121.98 7.08984 121.887 8.19141L114.434 8.57812L114.258 10.793H119.496L119.109 16.2422L113.836 16.418L113.66 18.9844H118.02H121.113C121.043 20.2734 120.967 21.5566 120.885 22.834C120.814 24.0996 120.75 25.3711 120.691 26.6484L105.539 27L106.102 1.65234H122.309ZM144.088 2.35547L137.232 14.2734L143.068 24.6445L135.721 26.9297L132.557 19.7578L128.83 26.9648L121.236 24.2227L127.705 14.0273L121.799 3.30469L129.85 1.37109L132.732 8.4375L135.791 1.37109L144.088 2.35547Z" fill="#1C8696"/>
<path d="M167.834 0.329115C164.518 0.569715 161.304 2.01271 158.862 4.35931C157.9 5.27761 157.339 5.95531 156.639 7.02661C155.364 8.97991 154.504 11.4432 154.344 13.6005L154.3 14.2419H158.163H162.026L162.113 13.7829C162.696 10.7073 165.101 8.43331 168.169 8.04721C170.137 7.79941 172.229 8.47711 173.701 9.83281C174.794 10.8459 175.53 12.1503 175.822 13.5861L175.946 14.2056L179.823 14.2275C183.175 14.2422 183.693 14.2275 183.693 14.1402C183.693 14.082 183.642 13.6446 183.584 13.1709C182.927 8.16361 179.881 3.93661 175.348 1.74301C174.255 1.21111 172.885 0.751815 171.755 0.547814C171.033 0.409215 169.248 0.234314 168.825 0.256214C168.723 0.263414 168.278 0.292515 167.834 0.329115Z" fill="#1C8696"/>
<path d="M168.257 9.6504C166.136 9.942 164.314 11.5671 163.745 13.659C163.57 14.3076 163.57 15.7068 163.745 16.3557C164.161 17.8863 165.217 19.1835 166.602 19.854C167.498 20.2839 167.987 20.3934 169.043 20.3934C169.867 20.3862 170.02 20.3643 170.61 20.1675C171.551 19.8468 172.119 19.4898 172.833 18.7683C173.351 18.2508 173.518 18.0177 173.802 17.4492C174.284 16.4727 174.386 15.9552 174.342 14.7891C174.298 13.521 174.072 12.8505 173.38 11.874C172.243 10.2627 170.202 9.3807 168.257 9.6504ZM169.627 12.7551C170.45 12.981 171.128 13.7244 171.303 14.5845C171.514 15.5829 170.96 16.6689 170.006 17.1354C169.649 17.3103 169.503 17.3394 168.971 17.3394C168.468 17.3322 168.293 17.3031 168.023 17.1645C167.477 16.8804 167.185 16.6032 166.93 16.1295C166.457 15.2403 166.58 14.1765 167.244 13.4622C167.914 12.7407 168.716 12.5001 169.627 12.7551Z" fill="#1C8696"/>
<path d="M154.344 16.443C154.548 19.0668 155.787 22.1205 157.507 24.2268C158.003 24.8391 159.176 26.0124 159.788 26.508C164.234 30.108 170.429 30.7641 175.566 28.1841C177.068 27.4263 178.168 26.6316 179.393 25.4001C181.856 22.9296 183.299 19.8465 183.656 16.2975L183.7 15.8457H179.808H175.924L175.829 16.3704C175.457 18.564 173.686 20.7213 171.602 21.5229C170.582 21.9165 170.129 21.9966 168.971 21.9966C168.104 21.9966 167.805 21.9675 167.294 21.8289C164.554 21.0999 162.572 18.921 162.091 16.1151L162.04 15.8454H158.17H154.3L154.344 16.443Z" fill="#1C8696"/>
</svg>
