<svg width="179" height="179" viewBox="0 0 179 179" fill="none" xmlns="http://www.w3.org/2000/svg">
<path d="M82.5423 1.96362C62.7556 3.39919 43.5793 12.0091 29.0123 26.0105C23.2718 31.4897 19.9245 35.5333 15.7484 41.9254C8.13914 53.58 3.00721 68.2777 2.05135 81.1496L1.79001 84.9767H24.838H47.8861L48.407 82.238C51.8849 63.8869 66.2354 50.3187 84.5435 48.0149C96.2841 46.5364 108.766 50.58 117.549 58.669C124.072 64.7139 128.465 72.4968 130.203 81.0637L130.942 84.7601L154.076 84.8907C174.079 84.9784 177.167 84.8907 177.167 84.3698C177.167 84.0226 176.863 81.4128 176.515 78.5864C172.601 48.7095 154.423 23.4884 127.376 10.3999C120.854 7.22621 112.679 4.48573 105.938 3.26852C101.633 2.44154 90.9785 1.39797 88.4564 1.52864C87.8478 1.5716 85.1951 1.74523 82.5423 1.96362Z" fill="#1C8696" fill-opacity="0.1"/>
<path d="M85.0644 57.5807C72.4109 59.3206 61.5384 69.017 58.1464 81.4987C57.1028 85.3687 57.1028 93.7172 58.1464 97.589C60.6255 106.722 66.9299 114.462 75.1925 118.462C80.541 121.027 83.4552 121.681 89.7595 121.681C94.6731 121.638 95.586 121.507 99.1087 120.333C104.719 118.419 108.111 116.289 112.371 111.984C115.459 108.896 116.457 107.506 118.154 104.114C121.025 98.2871 121.634 95.1993 121.373 88.2416C121.111 80.6753 119.764 76.6746 115.632 70.8482C108.852 61.2341 96.6743 55.9715 85.0644 57.5807ZM93.2393 76.1054C98.1529 77.4533 102.198 81.8889 103.242 87.0208C104.502 92.978 101.198 99.4578 95.5019 102.241C93.3718 103.285 92.5018 103.458 89.3264 103.458C86.3263 103.415 85.2828 103.242 83.6735 102.415C80.4122 100.72 78.6723 99.0657 77.1508 96.2393C74.3244 90.9338 75.0636 84.5864 79.0213 80.3244C83.0202 76.0195 87.8049 74.5839 93.2393 76.1054Z" fill="#1C8696" fill-opacity="0.1"/>
<path d="M2.05135 98.1099C3.26855 113.765 10.6612 131.986 20.9251 144.553C23.8822 148.207 30.8829 155.207 34.5363 158.164C61.0605 179.644 98.024 183.559 128.68 168.165C137.637 163.644 144.204 158.902 151.509 151.554C166.207 136.813 174.817 118.417 176.949 97.2417L177.21 94.546H153.988H130.811L130.246 97.6767C128.028 110.765 117.462 123.637 105.025 128.42C98.9369 130.768 96.2394 131.246 89.3264 131.246C84.1515 131.246 82.3687 131.073 79.3239 130.246C62.974 125.896 51.1457 112.895 48.2763 96.1534L47.972 94.5442H24.881H1.79001L2.05135 98.1099Z" fill="#1C8696" fill-opacity="0.1"/>
</svg>
